<svg width="28" height="28" viewBox="0 0 28 28" fill="none" xmlns="http://www.w3.org/2000/svg">
<path fill-rule="evenodd" clip-rule="evenodd" d="M15.16 1.20001C15.16 0.559362 14.6406 0.0400121 14 0.0400121C13.3593 0.0400121 12.84 0.559362 12.84 1.20001V17.5995L8.42022 13.1798C7.96721 12.7268 7.23274 12.7268 6.77973 13.1798C6.32672 13.6328 6.32672 14.3672 6.77973 14.8203L13.1797 21.2203L14 22.0405L14.8202 21.2203L21.2202 14.8203C21.6732 14.3672 21.6732 13.6328 21.2202 13.1798C20.7672 12.7268 20.0327 12.7268 19.5797 13.1798L15.16 17.5995V1.20001ZM3.15998 20.4C3.15998 19.7594 2.64063 19.24 1.99998 19.24C1.35933 19.24 0.839982 19.7594 0.839982 20.4V26.8V27.96H1.99998H26H27.16V26.8V20.4C27.16 19.7594 26.6406 19.24 26 19.24C25.3593 19.24 24.84 19.7594 24.84 20.4V25.64H3.15998V20.4Z" fill="#121212"/>
</svg>
