<svg width="200" height="200" viewBox="0 0 200 200" fill="none" xmlns="http://www.w3.org/2000/svg">
<path d="M111.661 17.467C97.9201 15.5863 83.9276 17.1369 70.9323 21.9806C57.937 26.8242 46.3431 34.8101 37.1856 45.2254C29.3481 54.2519 23.533 64.8511 20.1308 76.311C16.7286 87.7709 15.8181 99.8261 17.4606 111.667C21.8772 144.117 46.2772 171.725 78.1689 180.384C85.2783 182.329 92.6148 183.321 99.9856 183.334L101.169 183.325C105.382 183.271 109.513 182.153 113.178 180.076C116.844 177.998 119.925 175.029 122.136 171.442C124.354 167.875 125.634 163.805 125.857 159.61C126.08 155.415 125.238 151.232 123.411 147.45L121.752 143.984C120.477 141.492 119.878 138.708 120.015 135.912C120.153 133.116 121.022 130.405 122.536 128.05C124.702 124.532 128.095 121.941 132.06 120.779C136.025 119.617 140.28 119.966 144.002 121.759L147.436 123.4C150.869 125.05 154.519 125.892 158.277 125.892C164.855 125.858 171.158 123.253 175.839 118.632C180.52 114.012 183.208 107.743 183.327 101.167C183.43 93.4003 182.44 85.6578 180.386 78.167C171.719 46.2837 144.111 21.8837 111.661 17.467ZM154.644 108.375L151.211 106.734C135.977 99.417 117.294 105.084 108.419 119.184C102.269 128.984 101.644 140.65 106.719 151.2L108.377 154.667C108.999 155.926 109.286 157.324 109.212 158.727C109.137 160.129 108.704 161.489 107.952 162.675C107.22 163.887 106.189 164.891 104.957 165.59C103.725 166.289 102.335 166.66 100.919 166.667H99.9856C94.0878 166.651 88.2179 165.858 82.5273 164.309C57.0023 157.384 37.5023 135.317 33.9773 109.425C31.3023 89.8004 36.9106 70.9004 49.7523 56.1837C57.0584 47.8023 66.3444 41.3808 76.7653 37.5035C87.1861 33.6262 98.4111 32.4163 109.419 33.9837C135.311 37.5087 157.377 57.017 164.302 82.5337C165.952 88.617 166.744 94.817 166.652 100.925C166.552 107.65 159.611 110.784 154.644 108.375Z" fill="#C9AC60"/>
<path d="M62.5 133.333C69.4036 133.333 75 127.737 75 120.833C75 113.93 69.4036 108.333 62.5 108.333C55.5964 108.333 50 113.93 50 120.833C50 127.737 55.5964 133.333 62.5 133.333Z" fill="#C9AC60"/>
<path d="M62.5 100C69.4036 100 75 94.4036 75 87.5C75 80.5964 69.4036 75 62.5 75C55.5964 75 50 80.5964 50 87.5C50 94.4036 55.5964 100 62.5 100Z" fill="#C9AC60"/>
<path d="M87.5 75C94.4036 75 100 69.4036 100 62.5C100 55.5964 94.4036 50 87.5 50C80.5964 50 75 55.5964 75 62.5C75 69.4036 80.5964 75 87.5 75Z" fill="#C9AC60"/>
<path d="M120.834 75C127.738 75 133.334 69.4036 133.334 62.5C133.334 55.5964 127.738 50 120.834 50C113.93 50 108.334 55.5964 108.334 62.5C108.334 69.4036 113.93 75 120.834 75Z" fill="#C9AC60"/>
</svg>
