<svg width="40" height="40" viewBox="0 0 40 40" fill="none" xmlns="http://www.w3.org/2000/svg">
<path d="M11.2 8.80005C10.3238 8.80005 9.53538 9.07131 8.95156 9.56255C8.36775 10.0538 8.00938 10.7877 8.00938 11.5735C8.00938 13.0672 9.30503 14.2317 10.9531 14.3469L10.9562 14.3485C11.0348 14.3753 11.117 14.3895 11.2 14.3907C13.0184 14.3907 14.3906 13.1169 14.3906 11.5735C14.3905 11.5594 14.39 11.5453 14.3891 11.5313C14.3077 10.0111 12.9524 8.80005 11.2 8.80005ZM11.2 10.3907C12.3138 10.3907 12.7536 10.8881 12.8016 11.5938C12.7918 12.2788 12.3681 12.8094 11.2 12.8094C10.0917 12.8094 9.59063 12.2418 9.59063 11.5735C9.59063 11.2393 9.71256 10.9875 9.96875 10.7719C10.2249 10.5564 10.6362 10.3907 11.2 10.3907ZM8.8 15.2C8.58783 15.2001 8.38436 15.2844 8.23434 15.4344C8.08431 15.5844 8.00002 15.7879 8 16V31.2C8.00002 31.4122 8.08431 31.6157 8.23434 31.7657C8.38436 31.9157 8.58783 32 8.8 32H13.6C13.8122 32 14.0156 31.9157 14.1657 31.7657C14.3157 31.6157 14.4 31.4122 14.4 31.2V26.5079V16C14.4 15.7879 14.3157 15.5844 14.1657 15.4344C14.0156 15.2844 13.8122 15.2001 13.6 15.2H8.8ZM16 15.2C15.7878 15.2001 15.5844 15.2844 15.4343 15.4344C15.2843 15.5844 15.2 15.7879 15.2 16V31.2C15.2 31.4122 15.2843 31.6157 15.4343 31.7657C15.5844 31.9157 15.7878 32 16 32H20.8C21.0122 32 21.2156 31.9157 21.3657 31.7657C21.5157 31.6157 21.6 31.4122 21.6 31.2V23.2C21.6 22.5363 21.7811 21.8761 22.1 21.4438C22.4189 21.0115 22.8212 20.7521 23.5859 20.7657C24.3745 20.7792 24.792 21.0494 25.1078 21.4735C25.4236 21.8976 25.6 22.5334 25.6 23.2V31.2C25.6 31.4122 25.6843 31.6157 25.8343 31.7657C25.9844 31.9157 26.1878 32 26.4 32H31.2C31.4122 32 31.6156 31.9157 31.7657 31.7657C31.9157 31.6157 32 31.4122 32 31.2V22.6094C32 20.2402 31.2982 18.3635 30.0953 17.0938C28.8924 15.8241 27.2193 15.2 25.45 15.2C23.7684 15.2 22.4887 15.764 21.6 16.3391V16C21.6 15.7879 21.5157 15.5844 21.3657 15.4344C21.2156 15.2844 21.0122 15.2001 20.8 15.2H16ZM9.6 16.8H12.8V26.5079V30.4H9.6V16.8ZM16.8 16.8H20V18.0485C20 18.2162 20.0528 18.3797 20.1509 18.5158C20.2489 18.652 20.3872 18.7538 20.5463 18.807C20.7054 18.8602 20.8772 18.8621 21.0374 18.8123C21.1976 18.7626 21.3381 18.6637 21.4391 18.5297C21.4391 18.5297 22.6954 16.8 25.45 16.8C26.8527 16.8 28.0555 17.2661 28.9344 18.1938C29.8133 19.1215 30.4 20.5507 30.4 22.6094V30.4H27.2V23.2C27.2 22.2667 26.9764 21.3017 26.3922 20.5172C25.808 19.7327 24.8255 19.1865 23.6141 19.1657C22.3964 19.144 21.398 19.7016 20.8125 20.4954C20.227 21.2891 20 22.2638 20 23.2V30.4H16.8V16.8Z" fill="#F6F6F6"/>
<rect x="4.00001" y="3.99995" width="32" height="32" rx="7.2" stroke="#F6F6F6" stroke-width="1.6"/>
</svg>
