<svg width="91" height="55" viewBox="0 0 91 55" fill="none" xmlns="http://www.w3.org/2000/svg">
<path fill-rule="evenodd" clip-rule="evenodd" d="M10.8697 54.3674H3.21578C2.02837 54.3674 1.06578 53.4049 1.06578 52.2174C1.06578 51.03 2.02837 50.0674 3.21578 50.0674H9.52744L21.6694 23.0472C15.8948 22.9927 9.89745 24.663 3.43761 29.4931C2.48663 30.2042 1.13929 30.0097 0.428238 29.0587C-0.282813 28.1077 -0.0883249 26.7604 0.862649 26.0493C8.76424 20.1412 16.2907 18.3511 23.5707 18.8162L30.5859 3.20505C31.6821 0.76543 35.1415 0.753029 36.2553 3.18473L46.5596 25.6827C52.3427 28.118 57.8781 30.4153 63.4932 31.4536L65.8587 26.2887L75.9295 4.30049L71.5764 4.30049C70.389 4.30049 69.4264 3.3379 69.4264 2.15049C69.4264 0.963076 70.389 0.000488107 71.5764 0.000488211L79.2345 0.00048888C79.265 -0.000164825 79.2956 -0.000167321 79.3262 0.000488888L86.0188 0.000489473C87.2062 0.000489577 88.1688 0.963077 88.1688 2.15049C88.1688 3.3379 87.2062 4.30049 86.0188 4.30049L80.6591 4.30049L69.7682 28.0793L67.976 31.9922C73.9756 32.2978 80.1906 30.8396 86.8961 26.0248C87.8606 25.3323 89.204 25.5527 89.8965 26.5172C90.5891 27.4818 90.3686 28.8251 89.4041 29.5177C81.2611 35.3647 73.5266 36.8937 66.0671 36.1601L59.178 51.2015C58.0687 53.6236 54.6272 53.6236 53.5178 51.2015L43.3476 28.9961C37.5025 26.5416 31.9022 24.2966 26.2132 23.4265L14.2416 50.0674H18.621C19.8084 50.0674 20.771 51.03 20.771 52.2174C20.771 53.4049 19.8084 54.3674 18.621 54.3674H10.9646C10.933 54.3681 10.9014 54.3681 10.8697 54.3674ZM28.0345 19.3735C32.3844 20.168 36.6158 21.6334 40.7235 23.2669L33.4355 7.3544L28.0345 19.3735ZM49.1937 31.4339L56.3479 47.0543L61.653 35.4714C57.3843 34.5732 53.2287 33.0674 49.1937 31.4339Z" fill="#121212"/>
</svg>
