<svg width="216" height="66" viewBox="0 0 216 66" fill="none" xmlns="http://www.w3.org/2000/svg">
<path fill-rule="evenodd" clip-rule="evenodd" d="M11.425 57.4366H3.77109C2.58367 57.4366 1.62108 56.474 1.62108 55.2866C1.62108 54.0992 2.58367 53.1366 3.77109 53.1366H10.0827L22.2247 26.1163C16.4501 26.0618 10.4527 27.7321 3.9929 32.5622C3.04194 33.2733 1.69459 33.0788 0.983541 32.1278C0.272481 31.1769 0.466977 29.8295 1.41795 29.1185C9.31954 23.2103 16.846 21.4202 24.126 21.8853L31.1412 6.27417C32.2374 3.83455 35.6969 3.82215 36.8106 6.25386L47.1149 28.7518C52.898 31.1872 58.4334 33.4844 64.0485 34.5227L66.414 29.3578L76.4848 7.36961L72.1317 7.36961C70.9443 7.36961 69.9817 6.40702 69.9817 5.21961C69.9817 4.0322 70.9443 3.06961 72.1317 3.06961L79.7898 3.06961C79.8203 3.06896 79.8509 3.06895 79.8815 3.06961L86.5741 3.06961C87.7615 3.06961 88.7241 4.0322 88.7241 5.21961C88.7241 6.40702 87.7615 7.36961 86.5741 7.36961L81.2144 7.36961L70.3235 31.1484L68.5313 35.0613C74.5309 35.3669 80.7459 33.9088 87.4514 29.0939C88.4159 28.4014 89.7593 28.6218 90.4518 29.5864C91.1444 30.5509 90.9239 31.8942 89.9594 32.5868C81.8164 38.4338 74.0819 39.9629 66.6224 39.2292L59.7333 54.2706C58.624 56.6927 55.1825 56.6927 54.0731 54.2706L43.9029 32.0653C38.0578 29.6107 32.4575 27.3657 26.7685 26.4956L14.7969 53.1366H19.1763C20.3637 53.1366 21.3263 54.0992 21.3263 55.2866C21.3263 56.474 20.3637 57.4366 19.1763 57.4366H11.5199C11.4883 57.4373 11.4567 57.4373 11.425 57.4366ZM28.5898 22.4426C32.9397 23.2372 37.1711 24.7025 41.2788 26.336L33.9908 10.4235L28.5898 22.4426ZM49.749 34.503L56.9032 50.1234L62.2083 38.5405C57.9397 37.6423 53.784 36.1365 49.749 34.503Z" fill="#121212"/>
<path d="M121.879 18.1365H113.906L112.896 21.0037C112.68 21.6168 112.101 22.027 111.451 22.027V22.027C110.391 22.027 109.652 20.9767 110.009 19.9787L115.489 4.66091C115.854 3.6398 116.821 2.95836 117.906 2.95836V2.95836C118.99 2.95836 119.958 3.6398 120.323 4.66091L125.797 19.9615C126.157 20.9678 125.411 22.027 124.342 22.027V22.027C123.687 22.027 123.103 21.6134 122.885 20.9951L121.879 18.1365ZM121.002 15.5886L117.906 6.73921L114.783 15.5886H121.002Z" fill="black"/>
<path d="M132.626 9.12278C133.082 8.35566 133.685 7.76204 134.434 7.34195C134.777 7.14563 135.148 6.99327 135.547 6.88487C136.408 6.65056 137.146 7.40812 137.146 8.30086V9.12278C137.146 9.56159 136.791 9.91731 136.352 9.91731V9.91731C135.128 9.91731 134.196 10.2278 133.557 10.8488C132.936 11.4698 132.626 12.5475 132.626 14.0817V20.4653C132.626 21.3278 131.926 22.027 131.064 22.027V22.027C130.202 22.027 129.502 21.3278 129.502 20.4653V8.49264C129.502 7.63017 130.202 6.93099 131.064 6.93099V6.93099C131.926 6.93099 132.626 7.63016 132.626 8.49264V9.12278Z" fill="black"/>
<path d="M141.606 4.93097C141.04 4.93097 140.565 4.73919 140.182 4.35563C139.798 3.97206 139.606 3.49717 139.606 2.93096C139.606 2.36475 139.798 1.88986 140.182 1.50629C140.565 1.12273 141.04 0.930946 141.606 0.930946C142.154 0.930946 142.62 1.12273 143.004 1.50629C143.387 1.88986 143.579 2.36475 143.579 2.93096C143.579 3.49717 143.387 3.97206 143.004 4.35563C142.62 4.73919 142.154 4.93097 141.606 4.93097ZM141.579 6.93099C142.441 6.93099 143.141 7.63016 143.141 8.49264V20.4653C143.141 21.3278 142.441 22.027 141.579 22.027V22.027C140.716 22.027 140.017 21.3278 140.017 20.4653V8.49264C140.017 7.63017 140.716 6.93099 141.579 6.93099V6.93099Z" fill="black"/>
<path d="M146.2 14.4105C146.2 12.8945 146.511 11.552 147.132 10.3831C147.771 9.21411 148.629 8.30999 149.707 7.67072C150.803 7.01318 152.008 6.68441 153.323 6.68441C154.511 6.68441 155.543 6.92186 156.419 7.39674C157.314 7.85337 158.027 8.42872 158.556 9.12278V8.50634C158.556 7.6363 159.262 6.93099 160.132 6.93099V6.93099C161.002 6.93099 161.707 7.6363 161.707 8.50634V20.4516C161.707 21.3217 161.002 22.027 160.132 22.027V22.027C159.262 22.027 158.556 21.3217 158.556 20.4516V19.7804C158.027 20.4927 157.305 21.0863 156.392 21.5612C155.479 22.0361 154.438 22.2736 153.269 22.2736C151.972 22.2736 150.785 21.9448 149.707 21.2872C148.629 20.6114 147.771 19.6799 147.132 18.4927C146.511 17.2872 146.2 15.9265 146.2 14.4105ZM158.556 14.4653C158.556 13.4242 158.337 12.5201 157.899 11.7529C157.479 10.9858 156.922 10.4013 156.227 9.9995C155.533 9.59767 154.785 9.39676 153.981 9.39676C153.177 9.39676 152.428 9.59767 151.734 9.9995C151.04 10.3831 150.474 10.9584 150.036 11.7255C149.616 12.4744 149.406 13.3694 149.406 14.4105C149.406 15.4516 149.616 16.3648 150.036 17.1502C150.474 17.9356 151.04 18.5384 151.734 18.9585C152.447 19.3603 153.196 19.5612 153.981 19.5612C154.785 19.5612 155.533 19.3603 156.227 18.9585C156.922 18.5566 157.479 17.9722 157.899 17.205C158.337 16.4196 158.556 15.5064 158.556 14.4653Z" fill="black"/>
<path d="M173.426 6.68441C174.613 6.68441 175.672 6.93099 176.604 7.42414C177.554 7.9173 178.293 8.64789 178.823 9.61594C179.353 10.584 179.618 11.7529 179.618 13.1228V20.479C179.618 21.3339 178.925 22.027 178.07 22.027V22.027C177.215 22.027 176.522 21.3339 176.522 20.479V13.5886C176.522 12.237 176.184 11.205 175.508 10.4927C174.832 9.76206 173.91 9.39676 172.741 9.39676C171.572 9.39676 170.64 9.76206 169.946 10.4927C169.271 11.205 168.933 12.237 168.933 13.5886V20.4653C168.933 21.3278 168.233 22.027 167.371 22.027V22.027C166.509 22.027 165.809 21.3278 165.809 20.4653V8.49264C165.809 7.63017 166.509 6.93099 167.371 6.93099V6.93099C168.233 6.93099 168.933 7.63016 168.933 8.49264V8.65703C169.444 8.03602 170.092 7.552 170.878 7.20496C171.682 6.85793 172.531 6.68441 173.426 6.68441Z" fill="black"/>
<path d="M191.218 6.68441C192.405 6.68441 193.465 6.93099 194.396 7.42414C195.346 7.9173 196.086 8.64789 196.615 9.61594C197.145 10.584 197.41 11.7529 197.41 13.1228V20.479C197.41 21.3339 196.717 22.027 195.862 22.027V22.027C195.007 22.027 194.314 21.3339 194.314 20.479V13.5886C194.314 12.237 193.976 11.205 193.3 10.4927C192.624 9.76206 191.702 9.39676 190.533 9.39676C189.364 9.39676 188.433 9.76206 187.739 10.4927C187.063 11.205 186.725 12.237 186.725 13.5886V20.4653C186.725 21.3278 186.026 22.027 185.163 22.027V22.027C184.301 22.027 183.602 21.3278 183.602 20.4653V8.49265C183.602 7.63017 184.301 6.93099 185.163 6.93099V6.93099C186.026 6.93099 186.725 7.63017 186.725 8.49265V8.65703C187.236 8.03602 187.885 7.552 188.67 7.20496C189.474 6.85793 190.323 6.68441 191.218 6.68441Z" fill="black"/>
<path d="M200.353 14.4105C200.353 12.8945 200.663 11.552 201.284 10.3831C201.924 9.21411 202.782 8.30999 203.86 7.67072C204.956 7.01318 206.161 6.68441 207.476 6.68441C208.663 6.68441 209.695 6.92186 210.572 7.39674C211.467 7.85337 212.179 8.42872 212.709 9.12278V8.50634C212.709 7.6363 213.414 6.93099 214.284 6.93099V6.93099C215.154 6.93099 215.86 7.6363 215.86 8.50634V20.4516C215.86 21.3217 215.154 22.027 214.284 22.027V22.027C213.414 22.027 212.709 21.3217 212.709 20.4516V19.7804C212.179 20.4927 211.458 21.0863 210.545 21.5612C209.631 22.0361 208.59 22.2736 207.421 22.2736C206.125 22.2736 204.937 21.9448 203.86 21.2872C202.782 20.6114 201.924 19.6799 201.284 18.4927C200.663 17.2872 200.353 15.9265 200.353 14.4105ZM212.709 14.4653C212.709 13.4242 212.49 12.5201 212.052 11.7529C211.631 10.9858 211.074 10.4013 210.38 9.9995C209.686 9.59767 208.937 9.39676 208.134 9.39676C207.33 9.39676 206.581 9.59767 205.887 9.9995C205.193 10.3831 204.627 10.9584 204.188 11.7255C203.768 12.4744 203.558 13.3694 203.558 14.4105C203.558 15.4516 203.768 16.3648 204.188 17.1502C204.627 17.9356 205.193 18.5384 205.887 18.9585C206.599 19.3603 207.348 19.5612 208.134 19.5612C208.937 19.5612 209.686 19.3603 210.38 18.9585C211.074 18.5566 211.631 17.9722 212.052 17.205C212.49 16.4196 212.709 15.5064 212.709 14.4653Z" fill="black"/>
<path d="M116.618 39.0819C118.646 39.0819 120.417 39.4746 121.933 40.26C123.468 41.0271 124.646 42.1413 125.468 43.6025C126.308 45.0454 126.728 46.7349 126.728 48.671C126.728 50.6071 126.308 52.2875 125.468 53.7122C124.646 55.1368 123.468 56.2327 121.933 56.9999C120.417 57.7487 118.646 58.1231 116.618 58.1231H112.399C111.294 58.1231 110.399 57.2277 110.399 56.1231V41.0819C110.399 39.9774 111.294 39.0819 112.399 39.0819H116.618ZM116.618 55.5752C118.847 55.5752 120.554 54.9724 121.742 53.767C122.929 52.5615 123.522 50.8628 123.522 48.671C123.522 46.461 122.929 44.7349 121.742 43.4929C120.554 42.2509 118.847 41.6299 116.618 41.6299H113.522V55.5752H116.618Z" fill="black"/>
<path d="M143.659 50.2053C143.659 50.7715 143.623 51.2829 143.55 51.7395H132.015C132.107 52.945 132.554 53.9131 133.358 54.6437C134.161 55.3743 135.148 55.7396 136.317 55.7396C137.603 55.7396 138.6 55.3276 139.308 54.5037C139.726 54.0181 140.284 53.63 140.924 53.63V53.63C142.069 53.63 142.87 54.7697 142.171 55.6765C141.777 56.1872 141.305 56.6465 140.755 57.0546C139.568 57.9314 138.088 58.3697 136.317 58.3697C134.874 58.3697 133.577 58.0501 132.426 57.4108C131.294 56.7533 130.399 55.84 129.741 54.6711C129.102 53.4838 128.782 52.114 128.782 50.5615C128.782 49.0089 129.093 47.6482 129.714 46.4792C130.353 45.292 131.239 44.3788 132.371 43.7395C133.522 43.1002 134.837 42.7806 136.317 42.7806C137.741 42.7806 139.011 43.0911 140.125 43.7121C141.239 44.3331 142.107 45.2098 142.728 46.3422C143.349 47.4564 143.659 48.7441 143.659 50.2053ZM140.399 49.219C140.381 48.0683 139.97 47.1459 139.166 46.4518C138.362 45.7578 137.367 45.4107 136.18 45.4107C135.102 45.4107 134.18 45.7578 133.412 46.4518C132.645 47.1276 132.189 48.05 132.043 49.219H140.399Z" fill="black"/>
<path d="M152.212 58.3697C151.025 58.3697 149.957 58.1597 149.007 57.7396C148.075 57.3012 147.336 56.7167 146.788 55.9861C146.593 55.7196 146.43 55.4426 146.3 55.1552C145.913 54.3013 146.691 53.493 147.629 53.493V53.493C148.486 53.493 149.169 54.2235 149.759 54.8449C149.846 54.9368 149.942 55.025 150.048 55.1094C150.614 55.5295 151.317 55.7396 152.157 55.7396C153.034 55.7396 153.71 55.5752 154.185 55.2464C154.678 54.8994 154.925 54.461 154.925 53.9313C154.925 53.3651 154.651 52.945 154.103 52.6711C153.573 52.3971 152.724 52.0957 151.555 51.7669C150.422 51.4564 149.5 51.1551 148.788 50.8628C148.075 50.5706 147.454 50.1231 146.925 49.5203C146.413 48.9176 146.157 48.1231 146.157 47.1368C146.157 46.3331 146.395 45.6025 146.87 44.945C147.345 44.2692 148.02 43.7395 148.897 43.3559C149.792 42.9724 150.815 42.7806 151.966 42.7806C153.683 42.7806 155.062 43.2189 156.103 44.0957C156.743 44.6149 157.204 45.2511 157.484 46.0043C157.799 46.8525 157.043 47.6299 156.139 47.6299V47.6299C155.314 47.6299 154.686 46.9211 154.148 46.2959C154.061 46.1953 153.964 46.1011 153.856 46.0135C153.363 45.6116 152.696 45.4107 151.856 45.4107C151.034 45.4107 150.404 45.566 149.966 45.8765C149.527 46.187 149.308 46.598 149.308 47.1094C149.308 47.5112 149.454 47.8491 149.746 48.1231C150.039 48.3971 150.395 48.6162 150.815 48.7806C151.235 48.9267 151.856 49.1185 152.678 49.356C153.774 49.6482 154.669 49.9496 155.363 50.2601C156.075 50.5523 156.687 50.9907 157.199 51.5752C157.71 52.1596 157.975 52.9359 157.993 53.9039C157.993 54.7624 157.756 55.5295 157.281 56.2053C156.806 56.8811 156.13 57.4108 155.253 57.7944C154.395 58.1779 153.381 58.3697 152.212 58.3697Z" fill="black"/>
<path d="M162.957 41.0271C162.391 41.0271 161.916 40.8354 161.532 40.4518C161.149 40.0682 160.957 39.5933 160.957 39.0271C160.957 38.4609 161.149 37.986 161.532 37.6025C161.916 37.2189 162.391 37.0271 162.957 37.0271C163.505 37.0271 163.971 37.2189 164.354 37.6025C164.738 37.986 164.93 38.4609 164.93 39.0271C164.93 39.5933 164.738 40.0682 164.354 40.4518C163.971 40.8354 163.505 41.0271 162.957 41.0271ZM162.93 43.0272C163.792 43.0272 164.491 43.7263 164.491 44.5888V56.5615C164.491 57.424 163.792 58.1231 162.93 58.1231V58.1231C162.067 58.1231 161.368 57.424 161.368 56.5615V44.5888C161.368 43.7263 162.067 43.0272 162.93 43.0272V43.0272Z" fill="black"/>
<path d="M174.674 42.7806C175.843 42.7806 176.875 43.018 177.77 43.4929C178.683 43.9495 179.396 44.5249 179.907 45.2189V44.6025C179.907 43.7325 180.612 43.0272 181.482 43.0272V43.0272C182.352 43.0272 183.058 43.7325 183.058 44.6025V58.3697C183.058 59.7579 182.765 60.9907 182.181 62.0684C181.597 63.1643 180.747 64.0227 179.633 64.6437C178.537 65.2648 177.222 65.5753 175.688 65.5753C173.642 65.5753 171.943 65.0912 170.592 64.1232C169.774 63.5486 169.17 62.847 168.781 62.0184C168.358 61.1206 169.158 60.2327 170.151 60.2327V60.2327C170.884 60.2327 171.498 60.7488 171.96 61.3183C172.209 61.6235 172.519 61.8918 172.893 62.1232C173.679 62.6163 174.61 62.8629 175.688 62.8629C176.948 62.8629 177.962 62.4793 178.729 61.7122C179.514 60.9451 179.907 59.8309 179.907 58.3697V55.8492C179.377 56.5615 178.656 57.1642 177.743 57.6574C176.848 58.1323 175.825 58.3697 174.674 58.3697C173.359 58.3697 172.154 58.041 171.058 57.3834C169.98 56.7076 169.122 55.7761 168.482 54.5889C167.861 53.3834 167.551 52.0226 167.551 50.5067C167.551 48.9907 167.861 47.6482 168.482 46.4792C169.122 45.3103 169.98 44.4062 171.058 43.7669C172.154 43.1093 173.359 42.7806 174.674 42.7806ZM179.907 50.5615C179.907 49.5203 179.688 48.6162 179.249 47.8491C178.829 47.082 178.272 46.4975 177.578 46.0957C176.884 45.6938 176.135 45.4929 175.332 45.4929C174.528 45.4929 173.779 45.6938 173.085 46.0957C172.391 46.4792 171.825 47.0546 171.386 47.8217C170.966 48.5706 170.756 49.4656 170.756 50.5067C170.756 51.5478 170.966 52.461 171.386 53.2464C171.825 54.0318 172.391 54.6345 173.085 55.0546C173.797 55.4565 174.546 55.6574 175.332 55.6574C176.135 55.6574 176.884 55.4565 177.578 55.0546C178.272 54.6528 178.829 54.0683 179.249 53.3012C179.688 52.5158 179.907 51.6026 179.907 50.5615Z" fill="black"/>
<path d="M194.777 42.7806C195.964 42.7806 197.023 43.0272 197.955 43.5203C198.904 44.0135 199.644 44.7441 200.174 45.7121C200.704 46.6801 200.968 47.8491 200.968 49.219V56.5752C200.968 57.4301 200.275 58.1231 199.42 58.1231V58.1231C198.566 58.1231 197.872 57.4301 197.872 56.5752V49.6847C197.872 48.3331 197.535 47.3012 196.859 46.5888C196.183 45.8582 195.261 45.4929 194.092 45.4929C192.923 45.4929 191.991 45.8582 191.297 46.5888C190.621 47.3012 190.283 48.3331 190.283 49.6847V56.5615C190.283 57.424 189.584 58.1231 188.722 58.1231V58.1231C187.859 58.1231 187.16 57.424 187.16 56.5615V44.5888C187.16 43.7263 187.859 43.0272 188.722 43.0272V43.0272C189.584 43.0272 190.283 43.7263 190.283 44.5888V44.7532C190.795 44.1322 191.443 43.6482 192.229 43.3011C193.032 42.9541 193.882 42.7806 194.777 42.7806Z" fill="black"/>
</svg>
