<svg width="91" height="55" viewBox="0 0 91 55" fill="none" xmlns="http://www.w3.org/2000/svg">
<path fill-rule="evenodd" clip-rule="evenodd" d="M11.425 54.4366H3.77108C2.58367 54.4366 1.62108 53.474 1.62108 52.2866C1.62108 51.0992 2.58367 50.1366 3.77108 50.1366H10.0827L22.2247 23.1163C16.4501 23.0618 10.4527 24.7321 3.9929 29.5622C3.04193 30.2733 1.69459 30.0788 0.983536 29.1278C0.272477 28.1769 0.466973 26.8295 1.41795 26.1185C9.31954 20.2103 16.846 18.4202 24.126 18.8853L31.1412 3.27417C32.2374 0.834549 35.6968 0.822147 36.8106 3.25385L47.1148 25.7518C52.898 28.1871 58.4334 30.4844 64.0485 31.5227L66.414 26.3578L76.4848 4.36961L72.1317 4.36961C70.9443 4.36961 69.9817 3.40702 69.9817 2.21961C69.9817 1.03219 70.9443 0.0696066 72.1317 0.0696067L79.7898 0.0696074C79.8203 0.0689537 79.8509 0.0689512 79.8815 0.0696074L86.5741 0.069608C87.7615 0.0696081 88.7241 1.0322 88.7241 2.21961C88.7241 3.40702 87.7615 4.36961 86.5741 4.36961L81.2144 4.36961L70.3235 28.1484L68.5313 32.0613C74.5309 32.3669 80.7459 30.9088 87.4514 26.0939C88.4159 25.4014 89.7593 25.6218 90.4518 26.5864C91.1444 27.5509 90.9239 28.8942 89.9594 29.5868C81.8164 35.4338 74.0819 36.9629 66.6224 36.2292L59.7333 51.2706C58.624 53.6927 55.1825 53.6927 54.0731 51.2706L43.9029 29.0653C38.0578 26.6107 32.4575 24.3657 26.7685 23.4956L14.7969 50.1366H19.1763C20.3637 50.1366 21.3263 51.0992 21.3263 52.2866C21.3263 53.474 20.3637 54.4366 19.1763 54.4366H11.5199C11.4883 54.4373 11.4567 54.4373 11.425 54.4366ZM28.5898 19.4426C32.9397 20.2372 37.1711 21.7025 41.2788 23.336L33.9908 7.42352L28.5898 19.4426ZM49.749 31.503L56.9032 47.1234L62.2083 35.5405C57.9396 34.6423 53.784 33.1365 49.749 31.503Z" fill="#121212"/>
</svg>
