<svg width="151" height="151" viewBox="0 0 151 151" fill="none" xmlns="http://www.w3.org/2000/svg">
<g clip-path="url(#clip0_117_2576)">
<path d="M91.4789 113.256C91.9723 112.977 92.5434 112.867 93.1051 112.943C93.6668 113.018 94.1883 113.276 94.59 113.676L125.576 144.662C131.798 150.884 140.4 152.315 145.876 146.824L146.825 145.875C152.3 140.4 150.838 131.751 144.647 125.576L113.536 94.4649C113.142 94.0585 112.893 93.5329 112.828 92.9702C112.763 92.4075 112.887 91.8392 113.179 91.3538C120.14 79.8655 123.022 66.365 121.359 53.0357C119.697 39.7063 113.586 27.3275 104.017 17.9013C92.5868 6.49621 77.0945 0.0987436 60.9478 0.116247C44.8012 0.13375 29.3228 6.56479 17.9178 17.9946C6.51279 29.4244 0.115345 44.9168 0.132848 61.0635C0.150351 77.2102 6.58137 92.6886 18.0111 104.094C27.4384 113.667 39.8201 119.78 53.1528 121.443C66.4855 123.105 79.9892 120.221 91.4789 113.256ZM29.2576 92.8627C22.9695 86.573 18.6876 78.56 16.9533 69.8368C15.219 61.1137 16.1103 52.0722 19.5143 43.8555C22.9183 35.6388 28.6823 28.6161 36.0774 23.6751C43.4725 18.7342 52.1667 16.097 61.0605 16.097C69.9543 16.097 78.6485 18.7342 86.0436 23.6751C93.4387 28.6161 99.2027 35.6388 102.607 43.8555C106.011 52.0722 106.902 61.1137 105.168 69.8368C103.433 78.56 99.1515 86.573 92.8634 92.8627C84.4214 101.283 72.9843 106.012 61.0605 106.012C49.1367 106.012 37.6996 101.283 29.2576 92.8627Z" fill="#C9AC60"/>
<path d="M88.9752 57.4432C90.0175 57.4584 91.0468 57.2116 91.9688 56.7253C92.8908 56.2391 93.6758 55.529 94.2519 54.6603C94.8279 53.7916 95.1765 52.7921 95.2656 51.7535C95.3547 50.715 95.1815 49.6707 94.7618 48.7166C90.6669 39.06 82.9072 31.4232 73.1865 27.4829C63.4658 23.5427 52.5788 23.6213 42.9159 27.7013C42.156 28.023 41.4669 28.4913 40.888 29.0793C40.309 29.6674 39.8516 30.3637 39.5418 31.1285C38.916 32.6732 38.9295 34.4031 39.5793 35.9378C40.2291 37.4725 41.4619 38.6863 43.0065 39.312C44.5512 39.9377 46.2812 39.9242 47.8159 39.2745C54.4056 36.4977 61.8273 36.4463 68.4548 39.1318C75.0823 41.8172 80.375 47.0203 83.1731 53.601C83.6473 54.7466 84.453 55.7245 85.4868 56.409C86.5206 57.0936 87.7354 57.4537 88.9752 57.4432Z" fill="#C9AC60"/>
</g>
<defs>
<clipPath id="clip0_117_2576">
<rect width="150" height="150.001" fill="white" transform="translate(0.214844 0.214722)"/>
</clipPath>
</defs>
</svg>
