<svg width="200" height="197" viewBox="0 0 200 197" fill="none" xmlns="http://www.w3.org/2000/svg">
<g clip-path="url(#clip0_118_2587)">
<path d="M181.868 0H18.3834C8.35184 0 0 7.91787 0 18.0139V137.939C0 142.839 1.98805 147.526 5.42484 150.934C8.83984 154.321 13.5032 156.298 18.3834 156.298H68.3924C67.1654 173.755 60.2422 184.124 59.9066 184.622C58.203 186.973 57.9859 190.105 59.302 192.695C60.6221 195.293 63.3172 196.954 66.231 196.954H134.02C136.936 196.954 139.633 195.236 140.952 192.635C142.267 190.042 142.047 187.023 140.339 184.672C139.996 184.165 133.062 173.755 131.832 156.298H181.868C192.031 156.298 200 147.94 200 137.939V18.0139C200 7.91787 192.031 0 181.868 0ZM18.3834 15.4657H181.868C183.439 15.4657 184.534 16.5073 184.534 18.0139V100.996H15.4657V18.0139C15.4657 16.4282 16.8635 15.4657 18.3834 15.4657ZM121.586 181.488H78.6513C81.0207 175.278 83.3042 166.842 83.905 156.298H116.32C116.922 166.842 119.211 175.278 121.586 181.488ZM181.868 140.832H18.3834C16.8129 140.832 15.4657 139.477 15.4657 137.939V116.462H184.534V137.939C184.534 139.403 183.494 140.832 181.868 140.832Z" fill="#C9AC60"/>
</g>
<defs>
<clipPath id="clip0_118_2587">
<rect width="200" height="196.954" fill="white"/>
</clipPath>
</defs>
</svg>
