<svg width="40" height="40" viewBox="0 0 40 40" fill="none" xmlns="http://www.w3.org/2000/svg">
<path d="M11.2 3.19995C6.79093 3.19995 3.2 6.79088 3.2 11.2V28.7999C3.2 33.209 6.79093 36.7999 11.2 36.7999H28.8C33.2091 36.7999 36.8 33.209 36.8 28.7999V11.2C36.8 6.79088 33.2091 3.19995 28.8 3.19995H11.2ZM11.2 4.79995H28.8C32.3445 4.79995 35.2 7.65542 35.2 11.2V28.7999C35.2 32.3445 32.3445 35.1999 28.8 35.1999H11.2C7.65546 35.1999 4.8 32.3445 4.8 28.7999V11.2C4.8 7.65542 7.65546 4.79995 11.2 4.79995ZM10.4 12C8.8 12 8 12.8 8 14.4V25.5999C8 27.1999 8.8 28 10.4 28H29.6C31.2 28 32 27.1999 32 25.5999V14.4C32 12.8 31.2 12 29.6 12H10.4ZM10.7312 13.6H29.2672L22.1422 20.714C20.4562 22.4 19.5312 22.4 17.5125 20.3812L10.7312 13.6ZM30.4 14.7296V25.5999L24.7906 20.3312L30.4 14.7296ZM9.6 14.7312L15.2 20.3312L9.6 25.5999V14.7312ZM23.9906 21.1296L29.6 26.4H10.4L16 21.1312L16.7125 21.8437C18.8687 24 21.1187 24 23.2719 21.8468L23.9906 21.1296Z" fill="#121212"/>
</svg>
